<?xml version="1.0" encoding="iso-8859-1"?>
<!-- Generator: Adobe Illustrator 17.1.0, SVG Export Plug-In . SVG Version: 6.00 Build 0)  -->
<!DOCTYPE svg PUBLIC "-//W3C//DTD SVG 1.1//EN" "http://www.w3.org/Graphics/SVG/1.1/DTD/svg11.dtd">
<svg version="1.1" id="Capa_1" xmlns="http://www.w3.org/2000/svg" xmlns:xlink="http://www.w3.org/1999/xlink" x="0px" y="0px"
	 viewBox="0 0 442 442" style="enable-background:new 0 0 442 442;" xml:space="preserve">
<path d="M410.9,116.05h-58.575v-32.2C352.325,37.615,314.71,0,268.475,0c-6.725,0-13.463,0.816-20.026,2.426
	c-5.364,1.314-8.646,6.729-7.331,12.093c1.314,5.364,6.734,8.646,12.093,7.331c5.008-1.228,10.144-1.85,15.265-1.85
	c35.207,0,63.851,28.643,63.851,63.85v32.2H315.95h-58.575v-32.2c0-46.234-37.615-83.85-83.85-83.85
	C127.29,0,89.675,37.615,89.675,83.85v32.2H31.1c-5.522,0-10,4.478-10,10V432c0,5.522,4.478,10,10,10H315.95h94.95
	c5.522,0,10-4.478,10-10V126.05C420.9,120.527,416.423,116.05,410.9,116.05z M109.675,83.85c0-35.207,28.644-63.85,63.851-63.85
	s63.85,28.643,63.85,63.85v32.2h-32.75v-32.2c0-9.487,2.04-18.629,6.064-27.171c2.354-4.996,0.212-10.954-4.784-13.308
	c-4.996-2.356-10.955-0.212-13.308,4.784c-5.29,11.229-7.973,23.237-7.973,35.694v32.2h-74.95V83.85z M41.1,136.05h48.575v11.101
	c0,5.522,4.478,10,10,10s10-4.478,10-10V136.05h127.7v11.101c0,5.522,4.478,10,10,10s10-4.478,10-10V136.05h48.575V422H41.1V136.05z
	 M400.9,422h-27.476V225.337c0-5.522-4.478-10-10-10s-10,4.478-10,10V422H325.95V136.05h27.475v53.3c0,5.522,4.478,10,10,10
	s10-4.478,10-10v-53.3H400.9V422z"/>
<g>
</g>
<g>
</g>
<g>
</g>
<g>
</g>
<g>
</g>
<g>
</g>
<g>
</g>
<g>
</g>
<g>
</g>
<g>
</g>
<g>
</g>
<g>
</g>
<g>
</g>
<g>
</g>
<g>
</g>
</svg>
